<?xml version="1.0" standalone="no"?>
<!DOCTYPE svg PUBLIC "-//W3C//DTD SVG 20010904//EN"
 "http://www.w3.org/TR/2001/REC-SVG-20010904/DTD/svg10.dtd">
<svg version="1.0" xmlns="http://www.w3.org/2000/svg"
 width="512.000000pt" height="512.000000pt" viewBox="0 0 512.000000 512.000000"
 preserveAspectRatio="xMidYMid meet">

<g transform="translate(0.000000,512.000000) scale(0.100000,-0.100000)"
fill="#000000" stroke="none">
<path d="M1935 4936 c-194 -37 -329 -110 -476 -256 l-105 -105 -42 12 c-71 20
-174 26 -252 14 -293 -46 -504 -267 -545 -573 -6 -44 -8 -47 -61 -73 -66 -33
-161 -118 -203 -184 -63 -97 -95 -253 -73 -350 10 -39 8 -47 -18 -90 -52 -85
-100 -195 -127 -296 -24 -90 -27 -117 -26 -265 0 -180 10 -235 72 -395 126
-328 439 -583 798 -651 103 -19 331 -15 424 9 l55 14 32 -56 c176 -314 553
-475 903 -386 94 24 235 96 311 159 60 50 70 55 93 46 42 -16 156 -40 225 -48
l63 -7 18 -102 c46 -279 186 -411 604 -568 81 -30 174 -71 208 -92 128 -76
234 -217 270 -355 21 -81 46 -118 96 -145 41 -21 56 -23 208 -23 184 0 210 6
260 63 42 48 48 85 34 220 -33 321 -125 608 -258 810 -25 37 -44 69 -42 71 2
1 36 23 74 48 216 142 372 356 451 618 14 48 42 105 77 158 160 241 179 538
52 798 -42 86 -42 86 -27 128 24 65 28 222 7 292 -55 190 -201 325 -396 368
-23 5 -28 13 -34 52 -16 112 -87 283 -167 404 -54 82 -172 206 -257 271 -37
28 -115 74 -176 104 -145 72 -273 105 -433 112 l-122 6 -19 31 c-11 17 -41 52
-68 77 -192 186 -469 197 -682 29 l-54 -42 -36 21 c-73 45 -184 93 -259 112
-99 26 -282 33 -377 15z m337 -181 c74 -20 142 -49 199 -86 l46 -29 -19 -57
c-30 -88 -3 -143 70 -143 47 0 73 26 91 90 27 97 99 178 198 222 75 34 189 32
270 -6 111 -51 186 -159 199 -285 6 -52 11 -66 37 -87 38 -32 81 -27 116 13
20 23 23 34 18 81 l-6 55 87 -6 c360 -26 687 -283 808 -634 43 -125 43 -139 2
-148 -54 -11 -157 -66 -183 -97 -33 -39 -32 -73 4 -109 36 -36 74 -38 121 -5
134 90 315 72 431 -43 76 -77 103 -146 97 -256 -7 -123 -56 -207 -163 -274
-34 -22 -65 -47 -69 -56 -20 -54 6 -108 60 -121 33 -8 91 19 152 70 24 20 46
36 48 36 2 0 15 -37 30 -82 35 -105 39 -267 10 -362 -118 -391 -535 -582 -890
-407 -45 22 -91 48 -104 58 l-23 19 36 59 c49 81 60 125 60 230 0 67 -5 99
-19 127 -33 68 -118 72 -151 7 -12 -22 -12 -37 -3 -80 38 -183 -101 -330 -295
-312 -75 7 -104 -11 -114 -69 -16 -100 132 -134 322 -74 14 5 37 -6 80 -39
143 -108 294 -158 480 -158 128 -1 214 15 313 59 28 13 52 20 52 17 0 -15 -57
-103 -106 -164 -123 -154 -296 -263 -503 -315 -110 -28 -135 -47 -135 -100 0
-28 7 -42 28 -60 34 -30 59 -30 168 -1 l87 24 24 -26 c96 -104 188 -312 236
-531 18 -86 51 -307 51 -346 0 -12 -21 -14 -131 -12 l-132 3 -17 60 c-38 138
-134 280 -253 375 -73 58 -206 126 -332 170 -49 17 -140 55 -202 85 -178 87
-257 180 -284 334 -6 34 -9 67 -6 74 3 9 30 16 74 20 109 11 225 44 251 73 30
34 29 78 -4 111 -29 29 -58 29 -189 -1 -171 -39 -393 -27 -560 29 -42 14 -86
25 -100 25 -16 0 -50 -23 -101 -69 -136 -125 -316 -191 -484 -178 -424 33
-696 443 -564 850 26 79 -4 127 -79 127 -39 0 -59 -18 -83 -75 -9 -22 -21 -43
-28 -48 -28 -19 -144 21 -194 67 -36 32 -70 106 -78 167 -9 69 -16 83 -54 99
-40 16 -85 -2 -106 -42 -35 -69 26 -248 114 -337 69 -69 152 -109 263 -126
l36 -5 7 -88 c4 -48 8 -98 9 -112 2 -23 -3 -25 -68 -38 -99 -19 -298 -10 -393
17 -318 92 -540 319 -634 648 -18 64 -22 102 -22 218 1 153 18 240 70 356 l27
60 36 -40 c53 -58 119 -101 156 -101 56 0 100 64 77 115 -6 12 -31 37 -55 55
-167 120 -193 354 -56 504 74 81 141 111 249 111 109 0 179 -30 257 -110 43
-45 59 -55 86 -55 67 0 104 67 71 128 -25 47 -113 123 -179 155 -60 30 -155
57 -198 57 -30 0 -30 0 -23 47 16 118 121 261 236 322 76 41 187 64 261 56 30
-4 60 -10 67 -14 8 -4 3 -28 -15 -78 -16 -45 -23 -82 -19 -97 14 -58 85 -85
133 -51 12 8 29 39 39 68 40 123 100 221 191 309 97 94 224 163 343 187 30 6
64 13 75 15 37 9 210 -4 267 -19z"/>
<path d="M2414 4331 c-116 -33 -213 -111 -255 -206 -29 -65 -30 -159 -1 -232
l20 -53 -123 0 c-130 0 -165 -7 -204 -43 -47 -43 -61 -92 -61 -219 0 -65 -2
-118 -5 -118 -3 0 -34 9 -68 21 -211 72 -413 -101 -434 -371 -14 -188 74 -368
215 -436 56 -27 164 -30 235 -7 l57 20 0 -156 c0 -86 5 -172 10 -191 11 -41
61 -94 103 -109 16 -6 106 -11 210 -11 163 0 185 2 214 20 71 43 80 121 24
201 -79 112 -53 203 74 261 40 18 68 23 135 23 94 0 161 -23 213 -72 55 -54
52 -140 -9 -220 -38 -50 -43 -108 -12 -153 13 -19 35 -40 48 -47 32 -16 376
-18 417 -2 42 15 92 68 103 109 5 19 10 105 10 191 l0 156 58 -20 c70 -23 178
-20 234 7 177 86 265 350 190 567 -69 196 -240 297 -409 240 -34 -12 -65 -21
-68 -21 -3 0 -5 53 -5 118 0 127 -14 176 -61 219 -39 36 -74 43 -204 43 l-123
0 20 53 c29 73 28 167 -1 234 -26 58 -105 139 -167 171 -102 52 -264 66 -380
33z m255 -168 c65 -21 127 -74 140 -119 12 -44 -5 -107 -44 -158 -53 -69 -41
-155 28 -196 28 -18 51 -20 199 -20 l167 0 3 -181 3 -181 32 -28 c45 -40 92
-47 140 -22 119 65 144 74 179 68 48 -9 97 -56 125 -118 19 -42 24 -70 24
-139 0 -76 -4 -92 -30 -144 -59 -115 -145 -136 -255 -62 -62 42 -113 48 -160
21 -56 -34 -60 -52 -60 -283 l0 -211 -109 0 -109 0 20 53 c28 72 28 168 1 229
-112 249 -516 308 -729 106 -95 -89 -123 -214 -76 -336 l20 -52 -109 0 -109 0
0 211 c0 231 -4 249 -60 283 -47 27 -98 21 -160 -21 -110 -74 -196 -53 -255
62 -26 52 -30 68 -30 144 0 69 5 97 24 139 28 62 77 109 125 118 35 6 60 -3
179 -68 48 -25 95 -18 140 22 l32 28 3 181 3 181 167 0 c148 0 171 2 199 20
69 41 81 127 28 196 -65 86 -63 168 5 227 75 64 203 85 309 50z"/>
</g>
</svg>
